<svg width="65" height="64" viewBox="0 0 65 64" fill="none" xmlns="http://www.w3.org/2000/svg">
<g id="Type=Symbol" clip-path="url(#clip0_127496_3000)">
<path id="df" fill-rule="evenodd" clip-rule="evenodd" d="M15.3453 31.8221C13.9032 31.7474 12.5359 31.6405 11.3074 31.5017V31.491C10.8481 26.513 10.8267 20.6805 11.2326 15.6064C12.4611 15.4782 13.8284 15.382 15.2812 15.3073C19.1696 15.0722 21.3595 19.014 21.3595 23.6608C21.3808 28.2649 19.2016 32.0678 15.3453 31.8221ZM7.77155 33.0292C7.86769 34.0761 8.43385 35.0803 9.38458 35.2725V35.2832C11.2006 35.6357 13.3905 35.8921 15.7726 36.0417C22.3957 36.5224 27.1707 31.5871 27.2027 23.6715C27.2241 15.7025 22.385 10.4575 15.6765 10.9489C13.273 11.0984 11.0724 11.3548 9.27776 11.718C8.33771 11.8996 7.81428 12.893 7.69677 13.9933C7.15197 20.0609 7.18402 27.0471 7.77155 33.0292ZM40.6667 15.083C40.6026 14.0361 40.0151 12.9892 39.2459 12.7542L39.2353 12.7649C36.789 11.9958 33.36 11.451 29.6105 11.1305C28.3072 11.0237 27.6236 11.8249 27.6236 12.9679C27.8906 19.2705 27.8799 27.9552 27.5915 34.0655C27.5488 35.2405 28.7452 36.0738 30.0591 35.9456C31.4478 35.8067 32.6656 34.7919 32.7938 33.6168C33.0395 31.3735 33.1891 28.8098 33.2532 26.1606C35.2294 26.0858 37.0026 25.9896 38.4341 25.8721C39.2459 25.7974 39.8548 24.7612 39.8548 23.7036C39.8655 22.582 39.2994 21.6419 38.4661 21.5885C37.024 21.5137 35.2507 21.4603 33.2745 21.4176C33.2532 19.4414 33.1784 17.4865 33.0502 15.6491C35.6674 15.8842 37.9534 16.2046 39.6091 16.6212C40.3035 16.7601 40.7201 16.0337 40.6667 15.083Z" fill="#186531"/>
<path id="symbol" d="M46.9997 41.8742L44.1154 41.276L41.7226 38.8832C45.9528 34.012 48.2388 27.4103 47.2667 20.2532C45.846 9.72041 37.1399 1.26 26.5751 0.138354C11.5771 -1.464 -0.963996 11.0771 0.638354 26.0751C1.76 36.6399 10.2204 45.346 20.7532 46.7667C27.8997 47.7281 34.512 45.4528 39.3832 41.2226L41.776 43.6154L42.3742 46.4997C42.5024 47.1406 42.8229 47.7281 43.2929 48.1982L58.1734 63.0786C59.4019 64.3071 61.3781 64.3071 62.6066 63.0786L63.5786 62.1066C64.8071 60.8781 64.8071 58.9019 63.5786 57.6734L48.6982 42.7929C48.2388 42.3336 47.6406 42.0131 46.9997 41.8742ZM23.9899 43.6795C12.8376 43.6795 3.80032 34.6423 3.80032 23.4899C3.80032 12.3376 12.8483 3.30032 23.9899 3.30032C35.1316 3.30032 44.1795 12.3376 44.1795 23.4899C44.1795 34.6423 35.1423 43.6795 23.9899 43.6795Z" fill="#163867"/>
</g>
<defs>
<clipPath id="clip0_127496_3000">
<rect width="64" height="64" fill="white" transform="translate(0.5)"/>
</clipPath>
</defs>
</svg>
