<svg width="152" height="64" viewBox="0 0 152 64" fill="none" xmlns="http://www.w3.org/2000/svg">
<g id="Brand" clip-path="url(#clip0_127527_15639)">
<path id=".com" fill-rule="evenodd" clip-rule="evenodd" d="M136.006 40.1126C135.782 40.2524 135.516 40.334 135.228 40.334V40.3107C134.547 40.3107 133.94 39.8097 133.94 39.0058V38.9709C133.94 38.167 134.547 37.666 135.228 37.666C135.505 37.666 135.782 37.7476 136.006 37.8874C136.293 38.0621 136.751 38.132 137.038 37.8291C137.347 37.4796 137.305 36.8505 136.932 36.5709C136.463 36.1981 135.857 36 135.228 36C133.706 36 132.332 37.165 132.332 38.9825V39.0175C132.332 40.8349 133.716 42 135.228 42C135.857 42 136.453 41.8019 136.932 41.4291C137.305 41.1495 137.358 40.5204 137.038 40.1708C136.751 39.8679 136.293 39.9378 136.006 40.1126ZM131.949 40.9631C131.949 40.369 131.501 39.9379 130.969 39.9379C130.437 39.9379 130 40.3573 130 40.9631C130 41.569 130.437 42 130.969 42C131.501 42 131.949 41.5573 131.949 40.9631ZM141.39 38.9825C141.39 38.2019 140.847 37.6777 140.197 37.6777C139.548 37.6777 139.015 38.2136 139.015 38.9825C139.015 39.7514 139.558 40.334 140.197 40.334C140.836 40.334 141.39 39.7747 141.39 38.9825ZM137.418 38.9825C137.418 37.165 138.653 36 140.186 36C141.72 36 142.966 37.165 142.966 38.9825C142.966 40.8 141.72 42 140.186 42C138.653 42 137.418 40.8 137.418 38.9825ZM151.21 41.9534C151.636 41.9534 151.998 41.6156 151.998 41.1845L151.987 41.2078V38.6331C151.977 36.8855 151.178 36.0117 149.922 36.0117C149.549 36.0117 148.772 36.1981 148.388 37.1069C148.037 36.3146 147.494 36.0234 146.653 36.0234C146.088 36.0234 145.524 36.3729 145.279 36.9787V36.8389C145.279 36.4078 144.906 36.07 144.491 36.07C144.076 36.07 143.703 36.4195 143.703 36.8389V41.1962C143.714 41.6156 144.065 41.9651 144.491 41.9651C144.917 41.9651 145.279 41.6272 145.279 41.1962V38.8428C145.279 37.9573 145.716 37.6661 146.195 37.6661C146.653 37.6661 147.068 38.0389 147.068 38.7729V41.1845C147.079 41.6039 147.43 41.9534 147.856 41.9534C148.282 41.9534 148.644 41.6156 148.644 41.1845V38.8311C148.644 37.9923 149.038 37.6544 149.538 37.6544C150.007 37.6544 150.422 38.0505 150.422 38.8078V41.1845C150.433 41.6039 150.784 41.9534 151.21 41.9534Z" fill="#186531"/>
<path id="imoveis" fill-rule="evenodd" clip-rule="evenodd" d="M51.9075 35.8704C53.1821 35.8704 54.2461 34.9412 54.2461 33.742V21.6526C54.2461 20.4533 53.14 19.5242 51.9075 19.5242C50.675 19.5242 49.6005 20.4857 49.5689 21.6526V33.742C49.6005 34.9088 50.6328 35.8704 51.9075 35.8704ZM54.7412 13.7766C54.7412 12.1992 53.4771 11 51.9075 11C50.3379 11 49 12.1992 49 13.7766C49 15.3539 50.3379 16.5856 51.9075 16.5856C53.4771 16.5856 54.7412 15.3539 54.7412 13.7766ZM137.812 13.7766C137.812 15.3539 136.547 16.5856 134.978 16.5856C133.408 16.5856 132.07 15.3539 132.07 13.7766C132.07 12.1992 133.408 11 134.978 11C136.547 11 137.812 12.1992 137.812 13.7766ZM137.318 33.742C137.318 34.2282 137.139 34.6603 136.844 35.0169V35.0061C136.401 34.8008 135.906 34.6819 135.38 34.6819C134.642 34.6819 133.968 34.9088 133.431 35.287C132.967 34.898 132.662 34.3578 132.641 33.742V21.6526C132.672 20.4857 133.705 19.5242 134.979 19.5242C136.254 19.5242 137.318 20.4533 137.318 21.6526V33.742ZM142.604 35.6435C142.847 35.7191 143.1 35.7839 143.342 35.838C143.363 35.2221 143.9 34.736 144.532 34.736C144.901 34.736 145.227 34.898 145.449 35.1357C145.786 34.8548 146.218 34.6819 146.681 34.6819C147.44 34.6819 147.998 34.898 148.409 35.3518C148.862 34.8548 149.462 34.6711 149.926 34.6711H150.031C151.211 33.85 152.001 32.64 152.001 31.0195C152.001 29.9931 151.537 27.4866 147.756 26.2226L145.385 25.4015C144.448 25.0882 144.048 24.7857 144.048 24.2671C144.048 23.6513 144.753 23.3055 145.754 23.3055C146.355 23.3055 146.955 23.5108 147.629 24.0294C148.598 24.7857 149.568 25.0233 150.6 24.4075C151.306 23.997 151.569 23.003 151 21.9767C149.936 20.0644 147.629 19.3405 145.396 19.3405C142.12 19.3405 139.349 21.5337 139.349 23.8997V23.9291C139.349 25.3992 139.349 27.6486 143.995 29.2476L145.765 29.8959C146.902 30.274 147.303 30.5117 147.303 31.1923C147.303 32.0134 146.334 32.1863 145.301 32.1863C144.195 32.1863 143.194 31.7109 142.362 30.7818C141.867 30.166 140.898 29.723 139.855 30.1984C139.086 30.5441 138.686 31.6029 139.023 32.5968C139.318 33.4719 139.918 34.1742 140.666 34.7035C141.446 34.79 142.12 35.1141 142.615 35.6219L142.604 35.6435ZM80.4109 33.742C80.4109 34.9412 79.3469 35.8704 78.0723 35.8704C76.7976 35.8704 75.7653 34.9088 75.7337 33.742V27.1625C75.7337 25.0774 74.5012 23.9754 73.1317 23.9754C71.6674 23.9754 70.4876 24.9045 70.4876 27.2273V33.7312C70.4876 34.9304 69.4236 35.8596 68.149 35.8596C66.8743 35.8596 65.842 34.898 65.8104 33.7312V27.0545C65.8104 25.0341 64.5779 23.9754 63.24 23.9754C61.8389 23.9754 60.5327 24.7965 60.5327 27.2273V33.7312C60.5327 34.9304 59.4687 35.8596 58.1941 35.8596C56.9194 35.8596 55.8871 34.898 55.8555 33.7312V21.6418C55.8871 20.4749 56.9616 19.5134 58.1941 19.5134C59.4266 19.5134 60.5327 20.4425 60.5327 21.6418V22.0199C61.2701 20.3453 62.9345 19.3838 64.6095 19.3838C67.085 19.3838 68.7178 20.2048 69.7502 22.398C70.8879 19.8591 73.1949 19.3513 74.2905 19.3513C77.9986 19.3513 80.3688 21.7822 80.4004 26.6115V33.7312L80.4109 33.742ZM86.897 27.6487C86.897 29.5609 88.2981 30.9114 89.9625 30.9114C91.648 30.9114 93.049 29.5285 93.049 27.6487C93.049 25.7688 91.6269 24.4832 89.9625 24.4832C88.2981 24.4832 86.897 25.7364 86.897 27.6487ZM81.7773 27.6487C81.7773 22.6141 85.4222 19.3946 89.9625 19.3946C94.5028 19.3946 98.1792 22.6141 98.1792 27.6487C98.1792 32.6832 94.5133 36 89.9625 36C85.4117 36 81.7773 32.6832 81.7773 27.6487ZM109.225 33.8501C108.761 35.1142 107.919 35.8704 106.654 35.8704H106.454C105.222 35.8704 104.284 35.1142 103.779 33.8501L99.0698 22.4845C98.6695 21.3825 99.3015 19.9456 100.439 19.6431C101.904 19.265 102.946 19.9456 103.347 21.0152L106.518 29.6475L109.688 21.0152C110.057 19.9564 111.121 19.265 112.596 19.6431C113.734 19.9456 114.366 21.3934 113.965 22.4845L109.225 33.8501ZM123.172 23.3704C124.91 23.3704 126.216 24.3211 126.448 26.2766H126.438H119.696C120.096 24.2563 121.434 23.3704 123.172 23.3704ZM123.151 36C124.984 36 126.954 35.6219 128.523 34.5631H128.534C129.672 33.8717 129.998 32.4023 129.134 31.376C128.46 30.5873 127.259 30.382 126.195 31.1383C125.226 31.8297 124.425 31.8946 123.488 31.8946C121.855 31.8946 119.885 31.1059 119.653 29.2584H129.703C130.43 29.2584 131.136 28.6426 131.136 27.7891C131.136 22.7545 127.617 19.3946 123.151 19.3946C118.684 19.3946 115.008 22.6141 115.008 27.6487C115.008 32.6832 118.674 36 123.151 36Z" fill="#163867"/>
<path id="df" fill-rule="evenodd" clip-rule="evenodd" d="M14.8453 31.8221C13.4032 31.7473 12.0359 31.6405 10.8074 31.5016V31.4909C10.3481 26.513 10.3267 20.6804 10.7326 15.6063C11.9611 15.4781 13.3284 15.382 14.7812 15.3072C18.6696 15.0722 20.8595 19.014 20.8595 23.6608C20.8808 28.2649 18.7016 32.0678 14.8453 31.8221ZM7.27155 33.0292C7.36769 34.0761 7.93385 35.0802 8.88458 35.2725V35.2832C10.7006 35.6357 12.8905 35.892 15.2726 36.0416C21.8957 36.5223 26.6707 31.5871 26.7027 23.6715C26.7241 15.7024 21.885 10.4574 15.1765 10.9488C12.773 11.0984 10.5724 11.3547 8.77776 11.7179C7.83771 11.8995 7.31428 12.893 7.19677 13.9933C6.65197 20.0608 6.68402 27.0471 7.27155 33.0292ZM40.1667 15.0829C40.1026 14.036 39.5151 12.9892 38.7459 12.7542L38.7353 12.7649C36.289 11.9957 32.86 11.4509 29.1105 11.1305C27.8072 11.0236 27.1236 11.8248 27.1236 12.9678C27.3906 19.2704 27.3799 27.9551 27.0915 34.0654C27.0488 35.2405 28.2452 36.0737 29.5591 35.9455C30.9478 35.8066 32.1656 34.7918 32.2938 33.6168C32.5395 31.3735 32.6891 28.8097 32.7532 26.1605C34.7294 26.0857 36.5026 25.9896 37.9341 25.8721C38.7459 25.7973 39.3548 24.7611 39.3548 23.7036C39.3655 22.5819 38.7994 21.6419 37.9661 21.5885C36.524 21.5137 34.7507 21.4603 32.7745 21.4175C32.7532 19.4413 32.6784 17.4864 32.5502 15.6491C35.1674 15.8841 37.4534 16.2046 39.1091 16.6212C39.8035 16.76 40.2201 16.0336 40.1667 15.0829Z" fill="#186531"/>
<path id="symbol" d="M46.4997 41.8742L43.6154 41.276L41.2226 38.8832C45.4528 34.012 47.7388 27.4103 46.7667 20.2532C45.346 9.72041 36.6399 1.26 26.0751 0.138354C11.0771 -1.464 -1.464 11.0771 0.138354 26.0751C1.26 36.6399 9.72041 45.346 20.2532 46.7667C27.3997 47.7281 34.012 45.4528 38.8832 41.2226L41.276 43.6154L41.8742 46.4997C42.0024 47.1406 42.3229 47.7281 42.7929 48.1982L57.6734 63.0786C58.9019 64.3071 60.8781 64.3071 62.1066 63.0786L63.0786 62.1066C64.3071 60.8781 64.3071 58.9019 63.0786 57.6734L48.1982 42.7929C47.7388 42.3336 47.1406 42.0131 46.4997 41.8742ZM23.4899 43.6795C12.3376 43.6795 3.30032 34.6423 3.30032 23.4899C3.30032 12.3376 12.3483 3.30032 23.4899 3.30032C34.6316 3.30032 43.6795 12.3376 43.6795 23.4899C43.6795 34.6423 34.6423 43.6795 23.4899 43.6795Z" fill="#163867"/>
</g>
<defs>
<clipPath id="clip0_127527_15639">
<rect width="152" height="64" fill="white"/>
</clipPath>
</defs>
</svg>
