<svg width="80" height="32" viewBox="0 0 80 32" fill="none" xmlns="http://www.w3.org/2000/svg">
<g id="Logo Timipro" clip-path="url(#clip0_127499_3618)">
<path id="Vector" d="M23.86 20.9383L22.38 20.6392L21.1522 19.4427C23.3228 17.0071 24.4958 13.7061 23.997 10.1274C23.268 4.86085 18.8007 0.630509 13.3797 0.0696675C5.68387 -0.731534 -0.751207 5.53921 0.0709923 13.0385C0.646532 18.321 4.98775 22.6742 10.3923 23.3846C14.0593 23.8654 17.4523 22.7277 19.9518 20.6125L21.1796 21.8089L21.4865 23.2511C21.5523 23.5716 21.7168 23.8654 21.9579 24.1004L29.5934 31.5409C30.2238 32.1551 31.2378 32.1551 31.8682 31.5409L32.367 31.0548C32.9973 30.4406 32.9973 29.4524 32.367 28.8382L24.7315 21.3977C24.4958 21.168 24.1888 21.0077 23.86 20.9383ZM12.0532 21.841C6.33067 21.841 1.69347 17.3222 1.69347 11.7458C1.69347 6.16948 6.33615 1.65071 12.0532 1.65071C17.7702 1.65071 22.4129 6.16948 22.4129 11.7458C22.4129 17.3222 17.7757 21.841 12.0532 21.841Z" fill="#A8A8A8"/>
<path id="Vector_2" d="M30.6564 13.0542H28.124V5.95021H25.8438V3.93652H32.9311V5.95021H30.6564V13.0542Z" fill="#A8A8A8"/>
<path id="Vector_3" d="M33.9375 13.0542V3.93652H36.4808V13.0542H33.9375Z" fill="#A8A8A8"/>
<path id="Vector_4" d="M42.2578 13.0542L40.3448 6.48969H40.2845C40.3722 7.60603 40.4215 8.47667 40.4215 9.09626V13.0542H38.1797V3.93652H41.5452L43.4966 10.4102H43.5459L45.4589 3.93652H48.8299V13.0542H46.5058V9.05887C46.5058 8.85056 46.5058 8.62088 46.5168 8.3645C46.5223 8.11346 46.5497 7.48852 46.6045 6.50037H46.5442L44.6586 13.0542H42.2523H42.2578Z" fill="#A8A8A8"/>
<path id="Vector_5" d="M50.5234 13.0542V3.93652H53.0613V13.0542H50.5234Z" fill="#A8A8A8"/>
<path id="Vector_6" d="M57.2769 8.02265H57.7373C58.1155 8.02265 58.417 7.92117 58.6417 7.71285C58.8665 7.50454 58.9761 7.21611 58.9761 6.8529C58.9761 6.23864 58.6253 5.92885 57.9292 5.92885H57.2769V8.02265ZM61.5414 6.83687C61.5414 7.85707 61.2344 8.64225 60.615 9.19775C59.9956 9.75325 59.1241 10.031 57.9895 10.031H57.2769V13.0542H54.75V3.93652H57.9895C59.1734 3.93652 60.0559 4.18757 60.6534 4.68965C61.2454 5.19174 61.5414 5.90748 61.5414 6.83687Z" fill="#A8A8A8"/>
<path id="Vector_7" d="M65.23 7.88378H65.7014C66.5839 7.88378 67.0279 7.50454 67.0279 6.74073C67.0279 6.11579 66.5949 5.80065 65.7288 5.80065H65.23V7.88378ZM65.23 9.73722V13.0542H62.7031V3.93652H65.7672C68.3105 3.93652 69.5822 4.83387 69.5822 6.62856C69.5822 7.68615 69.0505 8.50337 67.9981 9.08024L70.7223 13.0542H67.8556L65.8713 9.73722H65.23Z" fill="#A8A8A8"/>
<path id="Vector_8" d="M73.5624 8.48218C73.5624 10.2448 74.1927 11.1261 75.4479 11.1261C76.0893 11.1261 76.5606 10.9125 76.8731 10.4852C77.18 10.0579 77.339 9.39021 77.339 8.48218C77.339 7.57415 77.18 6.90114 76.8676 6.46315C76.5552 6.0305 76.0838 5.81151 75.4644 5.81151C74.1982 5.81151 73.5624 6.70351 73.5624 8.48218ZM79.9974 8.48218C79.9974 10.0151 79.6137 11.1796 78.8409 11.9808C78.068 12.7766 76.9389 13.1772 75.4479 13.1772C73.957 13.1772 72.8553 12.7766 72.0714 11.9754C71.2876 11.1742 70.8984 10.0045 70.8984 8.4715C70.8984 6.93853 71.2876 5.79549 72.066 4.99428C72.8443 4.19308 73.9789 3.79248 75.4589 3.79248C76.9389 3.79248 78.0735 4.18774 78.8464 4.9836C79.6138 5.77946 79.9974 6.94387 79.9974 8.48218Z" fill="#A8A8A8"/>
<path id="Vector_9" d="M36.3233 18.5344C36.3233 18.8976 36.1918 19.1807 35.9232 19.389C35.6546 19.5973 35.2874 19.6988 34.8105 19.6988C34.372 19.6988 33.9883 19.6187 33.6484 19.4585V18.6733C33.9225 18.7961 34.1582 18.8763 34.35 18.9297C34.5419 18.9778 34.7173 19.0045 34.8763 19.0045C35.0681 19.0045 35.2106 18.9671 35.3148 18.8976C35.4189 18.8282 35.4682 18.7214 35.4682 18.5825C35.4682 18.5024 35.4463 18.4329 35.4025 18.3742C35.3586 18.3154 35.2928 18.2567 35.2051 18.1979C35.1174 18.1392 34.942 18.0537 34.6734 17.9255C34.4213 17.8133 34.2349 17.7012 34.1089 17.5943C33.9828 17.4875 33.8841 17.3647 33.8074 17.2258C33.7307 17.0869 33.6978 16.9213 33.6978 16.7344C33.6978 16.3819 33.8184 16.1041 34.065 15.9011C34.3117 15.6982 34.6515 15.5967 35.0845 15.5967C35.2983 15.5967 35.5011 15.6234 35.693 15.6715C35.8848 15.7195 36.0876 15.789 36.3014 15.8798L36.0219 16.5368C35.8026 16.4513 35.6217 16.3872 35.4792 16.3552C35.3367 16.3231 35.1942 16.3017 35.0571 16.3017C34.8927 16.3017 34.7666 16.3391 34.6789 16.4139C34.5912 16.4887 34.5474 16.5848 34.5474 16.7077C34.5474 16.7825 34.5638 16.8466 34.6022 16.9053C34.6351 16.9587 34.6954 17.0121 34.7721 17.0655C34.8488 17.119 35.0352 17.2098 35.3257 17.3433C35.7094 17.5196 35.9725 17.7012 36.115 17.8828C36.2576 18.0644 36.3288 18.2834 36.3288 18.5451L36.3233 18.5344Z" fill="#A8A8A8"/>
<path id="Vector_10" d="M37.8005 17.6424C37.8005 18.0911 37.8882 18.4222 38.0636 18.6519C38.239 18.8762 38.4967 18.9884 38.842 18.9884C39.5381 18.9884 39.8834 18.5397 39.8834 17.6424C39.8834 16.745 39.5381 16.291 38.8475 16.291C38.5021 16.291 38.239 16.4032 38.0636 16.6329C37.8882 16.8572 37.8005 17.1937 37.8005 17.6424ZM40.7933 17.6424C40.7933 18.3047 40.6234 18.8121 40.289 19.1647C39.9547 19.5225 39.4723 19.6988 38.842 19.6988C38.2116 19.6988 37.7293 19.5225 37.3949 19.1647C37.0605 18.8068 36.8906 18.2994 36.8906 17.637C36.8906 16.9747 37.0605 16.4619 37.3949 16.1148C37.7347 15.7622 38.2171 15.5913 38.8475 15.5913C39.4778 15.5913 39.9602 15.7676 40.2945 16.1201C40.6289 16.4726 40.7933 16.9801 40.7933 17.6424Z" fill="#A8A8A8"/>
<path id="Vector_11" d="M41.6406 19.6452V15.6499H42.5067V18.9455H44.173V19.6452H41.6406Z" fill="#A8A8A8"/>
<path id="Vector_12" d="M48.2171 15.6504V18.2356C48.2171 18.5293 48.1513 18.7911 48.0143 19.0101C47.8773 19.2344 47.6854 19.4053 47.4278 19.5228C47.1702 19.6403 46.8687 19.6991 46.5179 19.6991C45.9917 19.6991 45.5806 19.5656 45.2901 19.3038C44.9996 19.0421 44.8516 18.6789 44.8516 18.2249V15.6504H45.7176V18.0967C45.7176 18.4065 45.7834 18.6308 45.9095 18.775C46.0355 18.9193 46.2493 18.9887 46.5398 18.9887C46.8303 18.9887 47.0276 18.9139 47.1592 18.7697C47.2853 18.6255 47.351 18.3958 47.351 18.086V15.645H48.2171V15.6504Z" fill="#A8A8A8"/>
<path id="Vector_13" d="M51.396 20.3291C51.396 20.5641 51.3248 20.7297 51.1823 20.8365C51.0397 20.938 50.8205 20.9914 50.53 20.9914C50.382 20.9914 50.245 20.97 50.1189 20.9326V20.4733C50.1682 20.484 50.2395 20.5 50.3217 20.5107C50.4094 20.5213 50.4752 20.532 50.519 20.532C50.6561 20.532 50.7218 20.4733 50.7218 20.3611C50.7218 20.2115 50.5684 20.1101 50.2559 20.0673L50.4752 19.6454H51.0178L50.9411 19.8109C51.0781 19.8537 51.1877 19.9231 51.27 20.0139C51.3522 20.1047 51.396 20.2115 51.396 20.3291ZM50.963 16.2963C50.6341 16.2963 50.382 16.4138 50.2011 16.6542C50.0202 16.8946 49.9325 17.2257 49.9325 17.653C49.9325 18.545 50.2778 18.9884 50.963 18.9884C51.2535 18.9884 51.5988 18.9189 52.0099 18.7801V19.4905C51.6756 19.6293 51.2974 19.6934 50.8808 19.6934C50.2833 19.6934 49.8284 19.5172 49.5105 19.1646C49.1925 18.8121 49.0391 18.3047 49.0391 17.6477C49.0391 17.2311 49.1158 16.8679 49.2693 16.5581C49.4228 16.2483 49.6475 16.0079 49.938 15.837C50.2285 15.6714 50.5684 15.5859 50.9575 15.5859C51.3467 15.5859 51.7578 15.6821 52.1579 15.869L51.8784 16.5581C51.7249 16.4886 51.5714 16.4245 51.418 16.3711C51.2645 16.3177 51.111 16.291 50.963 16.291V16.2963Z" fill="#A8A8A8"/>
<path id="Vector_14" d="M53.613 17.6425C53.613 18.0912 53.7007 18.4224 53.8761 18.6521C54.0515 18.8764 54.3092 18.9886 54.6545 18.9886C55.3451 18.9886 55.6959 18.5399 55.6959 17.6425C55.6959 16.7452 55.3506 16.2912 54.66 16.2912C54.3146 16.2912 54.0515 16.4034 53.8761 16.633C53.7007 16.8574 53.613 17.1939 53.613 17.6425ZM54.194 15.0413C54.1338 15.0413 54.0789 15.068 54.0296 15.1161C53.9748 15.1642 53.9364 15.2389 53.9145 15.3351H53.4979C53.5198 15.0734 53.5966 14.865 53.7281 14.7155C53.8597 14.5659 54.0406 14.4912 54.2598 14.4912C54.3366 14.4912 54.4133 14.5072 54.4846 14.5339C54.5558 14.5659 54.6326 14.598 54.7038 14.63C54.7751 14.6674 54.8463 14.6995 54.9176 14.7262C54.9888 14.7529 55.0546 14.7689 55.1204 14.7689C55.1807 14.7689 55.2355 14.7475 55.2848 14.6995C55.3396 14.6514 55.378 14.5766 55.3999 14.4805H55.8165C55.7946 14.7422 55.7179 14.9505 55.5808 15.1001C55.4438 15.2496 55.2684 15.3244 55.0546 15.3244C54.9779 15.3244 54.9011 15.3084 54.8299 15.2817C54.7586 15.2496 54.6819 15.2176 54.6106 15.1855C54.5394 15.1481 54.4681 15.1161 54.3969 15.0894C54.3256 15.0573 54.2598 15.0467 54.194 15.0467V15.0413ZM56.6058 17.6425C56.6058 18.3049 56.4359 18.8123 56.1015 19.1648C55.7672 19.5227 55.2848 19.699 54.6545 19.699C54.0241 19.699 53.5418 19.5227 53.2074 19.1648C52.873 18.807 52.7031 18.2995 52.7031 17.6372C52.7031 16.9749 52.873 16.4621 53.2074 16.1149C53.5472 15.7624 54.0296 15.5915 54.66 15.5915C55.2903 15.5915 55.7727 15.7677 56.107 16.1203C56.4414 16.4728 56.6058 16.9802 56.6058 17.6425Z" fill="#A8A8A8"/>
<path id="Vector_15" d="M59.8156 19.6452H57.4531V15.6499H59.8156V16.3443H58.3192V17.2203H59.7114V17.9146H58.3192V18.9455H59.8156V19.6452Z" fill="#A8A8A8"/>
<path id="Vector_16" d="M63.0889 18.5344C63.0889 18.8976 62.9574 19.1807 62.6888 19.389C62.4202 19.5973 62.053 19.6988 61.5761 19.6988C61.1376 19.6988 60.7539 19.6187 60.4141 19.4585V18.6733C60.6936 18.7961 60.9238 18.8763 61.1157 18.9297C61.3075 18.9778 61.4829 19.0045 61.6419 19.0045C61.8337 19.0045 61.9817 18.9671 62.0804 18.8976C62.1845 18.8282 62.2339 18.7214 62.2339 18.5825C62.2339 18.5024 62.2119 18.4329 62.1681 18.3742C62.1242 18.3154 62.0585 18.2567 61.9708 18.1979C61.8831 18.1392 61.7077 18.0537 61.4391 17.9255C61.1869 17.8133 61.0006 17.7012 60.8745 17.5943C60.7484 17.4875 60.6498 17.3647 60.573 17.2258C60.4963 17.0869 60.4579 16.9213 60.4579 16.7344C60.4579 16.3819 60.5785 16.1041 60.8252 15.9011C61.0718 15.6982 61.4117 15.5967 61.8447 15.5967C62.0585 15.5967 62.2613 15.6234 62.4531 15.6715C62.645 15.7195 62.8478 15.789 63.0615 15.8798L62.782 16.5368C62.5627 16.4513 62.3819 16.3872 62.2393 16.3552C62.0968 16.3231 61.9543 16.3017 61.8173 16.3017C61.6528 16.3017 61.5268 16.3391 61.4391 16.4139C61.3514 16.4887 61.3075 16.5848 61.3075 16.7077C61.3075 16.7825 61.324 16.8466 61.3623 16.9053C61.3952 16.9587 61.4555 17.0121 61.5323 17.0655C61.609 17.119 61.7954 17.2098 62.0859 17.3433C62.4696 17.5196 62.7327 17.7012 62.8752 17.8828C63.0177 18.0644 63.0889 18.2834 63.0889 18.5451V18.5344Z" fill="#A8A8A8"/>
<path id="Vector_17" d="M67.6906 19.6452H65.3281V15.6499H67.6906V16.3443H66.1942V17.2203H67.5864V17.9146H66.1942V18.9455H67.6906V19.6452Z" fill="#A8A8A8"/>
<path id="Vector_18" d="M70.2766 19.6452L69.29 16.5099H69.2626C69.2955 17.1455 69.3174 17.5728 69.3174 17.7864V19.6452H68.5391V15.6499H69.723L70.6932 18.7052H70.7097L71.7402 15.6499H72.9241V19.6452H72.1129V17.7544C72.1129 17.6636 72.1129 17.5621 72.1129 17.4446C72.1129 17.3271 72.1293 17.0173 72.1513 16.5152H72.1239L71.066 19.6452H70.2712H70.2766Z" fill="#A8A8A8"/>
<path id="Vector_19" d="M77.0311 19.6452H76.1651V16.355H75.0469V15.6499H78.1438V16.355H77.0311V19.6452Z" fill="#A8A8A8"/>
<path id="Vector_20" d="M78.7734 19.6452V15.6499H79.6447V19.6452H78.7734Z" fill="#A8A8A8"/>
<path id="Subtract" fill-rule="evenodd" clip-rule="evenodd" d="M12.0561 16.0029C14.4679 16.0029 16.4247 14.096 16.4247 11.7458C16.4247 9.39563 14.4679 7.48877 12.0561 7.48877C9.64433 7.48877 7.6875 9.39563 7.6875 11.7458C7.6875 14.096 9.64433 16.0029 12.0561 16.0029ZM11.3117 14.6889H12.7971V10.5173H14.1346V9.33154H9.96875V10.5173H11.3117V14.6889Z" fill="#A8A8A8"/>
<path id="Vector_21" d="M5.26998 15.8101C5.30287 15.6179 5.33028 15.4309 5.36865 15.2386C5.37961 15.1692 5.3522 15.1158 5.3248 15.057C5.29739 14.9983 5.30287 14.9822 5.36865 14.9822C5.45087 14.9822 5.53857 14.9822 5.62079 14.9822C5.65916 14.9822 5.69205 14.9929 5.66464 15.0356C5.59886 15.1318 5.60983 15.2333 5.63175 15.3454C5.65916 15.495 5.68108 15.6499 5.72493 15.8048C5.75234 15.7354 5.77975 15.6659 5.80715 15.5911C5.91678 15.3134 6.02093 15.041 6.12507 14.7632C6.147 14.7045 6.16892 14.6991 6.22374 14.7258C6.43203 14.8327 6.64032 14.9342 6.85409 15.0356C6.97468 15.0944 7.03497 15.1852 7.0569 15.3081C7.12267 15.714 7.18845 16.1146 7.25422 16.5205C7.25971 16.5686 7.24874 16.5793 7.20489 16.5846C7.18297 16.5846 7.16652 16.5846 7.1446 16.5846H3.8558C3.8558 16.5846 3.81195 16.5846 3.79551 16.5846C3.73521 16.59 3.71877 16.5633 3.72973 16.5099C3.76262 16.3229 3.79002 16.1306 3.82291 15.9437C3.86128 15.7247 3.89417 15.511 3.93254 15.292C3.94898 15.1852 4.0038 15.1051 4.10246 15.057C4.3272 14.9448 4.55193 14.838 4.77118 14.7258C4.83696 14.6938 4.84792 14.7419 4.85888 14.7793C4.95207 15.025 5.05073 15.2707 5.14391 15.5164C5.18228 15.6179 5.22065 15.7193 5.2645 15.8208C5.2645 15.8208 5.26998 15.8208 5.27547 15.8208L5.26998 15.8101Z" fill="#A8A8A8"/>
<path id="Vector_22" d="M6.38228 13.1289C6.38228 13.2143 6.36583 13.2998 6.35487 13.3852C6.35487 13.4066 6.34939 13.4226 6.37132 13.444C6.45902 13.5241 6.46998 13.6096 6.41517 13.7164C6.38228 13.7752 6.33843 13.8339 6.27813 13.8606C6.22332 13.882 6.20139 13.9247 6.18495 13.9728C6.10273 14.1811 5.97118 14.3467 5.76837 14.4589C5.58749 14.5603 5.4066 14.5603 5.22024 14.4589C5.01743 14.3467 4.88039 14.1811 4.79817 13.9675C4.78173 13.9194 4.75432 13.8873 4.70499 13.8606C4.60633 13.8126 4.557 13.7271 4.53507 13.6256C4.52411 13.5668 4.53507 13.5081 4.58988 13.4707C4.62825 13.4387 4.62825 13.4066 4.62277 13.3639C4.60085 13.2303 4.59536 13.0968 4.61181 12.9579C4.6447 12.7122 4.77077 12.5306 5.00098 12.4238C5.39564 12.2475 5.77385 12.2689 6.13014 12.5199C6.23976 12.5947 6.30006 12.7069 6.33843 12.8244C6.36583 12.9205 6.38228 13.022 6.38228 13.1289Z" fill="#A8A8A8"/>
<path id="Vector_23" d="M18.4028 15.8101C18.4357 15.6179 18.4631 15.4309 18.5015 15.2386C18.5124 15.1692 18.485 15.1158 18.4576 15.057C18.4302 14.9983 18.4357 14.9822 18.5015 14.9822C18.5837 14.9822 18.6714 14.9822 18.7536 14.9822C18.792 14.9822 18.8249 14.9929 18.7975 15.0356C18.7317 15.1318 18.7426 15.2333 18.7646 15.3454C18.792 15.495 18.8139 15.6499 18.8577 15.8048C18.8852 15.7354 18.9126 15.6659 18.94 15.5911C19.0496 15.3134 19.1537 15.041 19.2579 14.7632C19.2798 14.7045 19.3017 14.6991 19.3565 14.7258C19.5648 14.8327 19.7731 14.9342 19.9869 15.0356C20.1075 15.0944 20.1678 15.1852 20.1897 15.3081C20.2555 15.714 20.3213 16.1146 20.387 16.5205C20.3925 16.5686 20.3816 16.5793 20.3377 16.5846C20.3158 16.5846 20.2993 16.5846 20.2774 16.5846H16.9886C16.9886 16.5846 16.9448 16.5846 16.9283 16.5846C16.868 16.59 16.8516 16.5633 16.8625 16.5099C16.8954 16.3229 16.9228 16.1306 16.9557 15.9437C16.9941 15.7247 17.027 15.511 17.0654 15.292C17.0818 15.1852 17.1366 15.1051 17.2353 15.057C17.46 14.9448 17.6847 14.838 17.904 14.7258C17.9698 14.6938 17.9807 14.7419 17.9917 14.7793C18.0849 15.025 18.1835 15.2707 18.2767 15.5164C18.3151 15.6179 18.3535 15.7193 18.3973 15.8208C18.3973 15.8208 18.4028 15.8208 18.4083 15.8208L18.4028 15.8101Z" fill="#A8A8A8"/>
<path id="Vector_24" d="M19.5151 13.1289C19.5151 13.2143 19.4986 13.2998 19.4877 13.3852C19.4877 13.4066 19.4822 13.4226 19.5041 13.444C19.5918 13.5241 19.6028 13.6096 19.548 13.7164C19.5151 13.7752 19.4712 13.8339 19.4109 13.8606C19.3561 13.882 19.3342 13.9247 19.3178 13.9728C19.2355 14.1811 19.104 14.3467 18.9012 14.4589C18.7203 14.5603 18.5394 14.5603 18.353 14.4589C18.1502 14.3467 18.0132 14.1811 17.931 13.9675C17.9145 13.9194 17.8871 13.8873 17.8378 13.8606C17.7391 13.8126 17.6898 13.7271 17.6679 13.6256C17.6569 13.5668 17.6679 13.5081 17.7227 13.4707C17.7611 13.4387 17.7611 13.4066 17.7556 13.3639C17.7337 13.2303 17.7282 13.0968 17.7446 12.9579C17.7775 12.7122 17.9036 12.5306 18.1338 12.4238C18.5285 12.2475 18.9067 12.2689 19.2629 12.5199C19.3726 12.5947 19.4329 12.7069 19.4712 12.8244C19.4986 12.9205 19.5151 13.022 19.5151 13.1289Z" fill="#A8A8A8"/>
<path id="Vector_25" d="M11.8325 6.17977C11.8654 5.98748 11.8928 5.80054 11.9311 5.60825C11.9421 5.53881 11.9147 5.4854 11.8873 5.42664C11.8599 5.36789 11.8654 5.35186 11.9311 5.35186C12.0134 5.35186 12.1011 5.35186 12.1833 5.35186C12.2217 5.35186 12.2545 5.36255 12.2271 5.40528C12.1614 5.50142 12.1723 5.60291 12.1943 5.71507C12.2217 5.86463 12.2436 6.01953 12.2874 6.17443C12.3148 6.10499 12.3422 6.03556 12.3697 5.96078C12.4793 5.68303 12.5834 5.41062 12.6876 5.13287C12.7095 5.07411 12.7314 5.06877 12.7862 5.09548C12.9945 5.20231 13.2028 5.30379 13.4166 5.40528C13.5372 5.46403 13.5975 5.55483 13.6194 5.67769C13.6852 6.08363 13.7509 6.48423 13.8167 6.89017C13.8222 6.93824 13.8112 6.94893 13.7674 6.95427C13.7455 6.95427 13.729 6.95427 13.7071 6.95427C12.6108 6.95427 11.5146 6.95427 10.4183 6.95427C10.3964 6.95427 10.3744 6.95427 10.358 6.95427C10.2977 6.95961 10.2813 6.9329 10.2922 6.87949C10.3251 6.69254 10.3525 6.50025 10.3854 6.3133C10.4238 6.09431 10.4567 5.88066 10.495 5.66166C10.5115 5.55483 10.5663 5.47471 10.665 5.42664C10.8897 5.31447 11.1144 5.20765 11.3337 5.09548C11.3995 5.06343 11.4104 5.1115 11.4214 5.14889C11.5146 5.39459 11.6132 5.6403 11.7064 5.886C11.7448 5.98748 11.7832 6.08897 11.827 6.19045C11.827 6.19045 11.8325 6.19045 11.838 6.19045L11.8325 6.17977Z" fill="#A8A8A8"/>
<path id="Vector_26" d="M12.9448 3.49312C12.9448 3.57858 12.9283 3.66404 12.9174 3.7495C12.9174 3.77087 12.9119 3.78689 12.9338 3.80826C13.0215 3.88838 13.0325 3.97384 12.9777 4.08067C12.9448 4.13942 12.9009 4.19818 12.8406 4.22488C12.7858 4.24625 12.7639 4.28898 12.7475 4.33705C12.6652 4.54536 12.5337 4.71094 12.3309 4.82311C12.15 4.9246 11.9691 4.9246 11.7827 4.82311C11.5799 4.71094 11.4429 4.54536 11.3607 4.33171C11.3442 4.28364 11.3168 4.25159 11.2675 4.22488C11.1688 4.17681 11.1195 4.09135 11.0976 3.98986C11.0866 3.93111 11.0976 3.87235 11.1524 3.83496C11.1908 3.80292 11.1908 3.77087 11.1853 3.72814C11.1633 3.5946 11.1579 3.46107 11.1743 3.32219C11.2072 3.07649 11.3333 2.89489 11.5635 2.78806C11.9581 2.6118 12.3364 2.63316 12.6926 2.8842C12.8023 2.95898 12.8626 3.07115 12.9009 3.18866C12.9283 3.2848 12.9448 3.38629 12.9448 3.49312Z" fill="#A8A8A8"/>
<path id="Vector_27" d="M9.78167 5.13815C9.66108 5.13815 9.55146 5.06337 9.51309 4.9512C9.46375 4.80698 9.54597 4.65208 9.69397 4.60401C9.73782 4.58799 9.78715 4.57731 9.831 4.56128C9.979 4.51855 10.138 4.59867 10.1818 4.74289C10.2257 4.8871 10.1434 5.042 9.99544 5.08473C9.95159 5.09542 9.91322 5.11144 9.86937 5.12212C9.84197 5.13281 9.80908 5.13815 9.78167 5.13815ZM14.4134 5.1702C14.3805 5.1702 14.3531 5.1702 14.3202 5.15417C14.2764 5.13815 14.238 5.12746 14.1941 5.11144C14.0461 5.06337 13.9639 4.90847 14.0133 4.76425C14.0626 4.62004 14.2215 4.53992 14.3695 4.58799C14.4134 4.60401 14.4627 4.6147 14.5066 4.63072C14.6546 4.67879 14.7313 4.83903 14.682 4.98325C14.6436 5.09542 14.534 5.1702 14.4134 5.1702ZM8.39489 5.74706C8.29623 5.74706 8.20305 5.69899 8.14823 5.60819C8.0715 5.47465 8.11535 5.30907 8.25238 5.23429C8.29623 5.21293 8.3346 5.18622 8.37845 5.16485C8.51548 5.09008 8.6854 5.13815 8.76214 5.27168C8.83888 5.40521 8.78955 5.5708 8.65252 5.64557C8.61415 5.66694 8.57578 5.68831 8.53741 5.70967C8.49356 5.73638 8.44423 5.74706 8.39489 5.74706ZM15.7892 5.79513C15.7399 5.79513 15.6905 5.78445 15.6412 5.75774C15.6028 5.73638 15.5645 5.71501 15.5261 5.69365C15.3891 5.61887 15.3452 5.44795 15.422 5.31975C15.4987 5.18622 15.6741 5.14349 15.8057 5.21827C15.8495 5.23963 15.8879 5.26634 15.9317 5.2877C16.0633 5.36782 16.1071 5.53341 16.0304 5.66694C15.9756 5.7524 15.8824 5.80047 15.7892 5.80047V5.79513ZM7.16708 6.62304C7.09034 6.62304 7.0136 6.59099 6.95879 6.53224C6.85464 6.42007 6.8656 6.24381 6.98071 6.14232C7.0136 6.11027 7.05197 6.07822 7.09034 6.05152C7.20545 5.95003 7.38633 5.96606 7.49047 6.07822C7.59462 6.19039 7.58366 6.36666 7.46307 6.46814C7.43018 6.49485 7.39729 6.5269 7.3644 6.5536C7.30959 6.60168 7.24382 6.62304 7.17256 6.62304H7.16708ZM17.0061 6.6818C16.9348 6.6818 16.869 6.65509 16.8142 6.60702C16.7813 6.57497 16.7484 6.54826 16.7156 6.52156C16.6004 6.42007 16.5895 6.24381 16.6936 6.13164C16.7978 6.01947 16.9787 6.00879 17.0938 6.11027C17.1267 6.14232 17.165 6.17437 17.1979 6.20642C17.313 6.3079 17.3185 6.48417 17.2144 6.59633C17.1595 6.65509 17.0828 6.68714 17.0061 6.68714V6.6818ZM6.15303 7.72336C6.09822 7.72336 6.03792 7.70733 5.98859 7.66994C5.86252 7.57914 5.83511 7.40822 5.9283 7.28537C5.9557 7.24798 5.98311 7.21059 6.016 7.1732C6.10918 7.05035 6.28458 7.02898 6.41065 7.11979C6.53672 7.21059 6.55865 7.38151 6.46547 7.50436C6.43806 7.54175 6.41065 7.5738 6.38325 7.61119C6.32843 7.68597 6.24073 7.72336 6.15303 7.72336ZM18.0037 7.79814C17.916 7.79814 17.8283 7.75541 17.7734 7.68063C17.746 7.64324 17.7241 7.61119 17.6967 7.5738C17.6035 7.45095 17.6309 7.28003 17.757 7.18922C17.8831 7.09842 18.0585 7.12513 18.1517 7.24798C18.1791 7.28537 18.2065 7.32276 18.2339 7.36015C18.3216 7.483 18.2942 7.65392 18.1626 7.74472C18.1133 7.77677 18.0585 7.7928 17.9982 7.7928L18.0037 7.79814ZM5.39661 9.01062C5.35824 9.01062 5.31987 9.00528 5.2815 8.98926C5.13898 8.92516 5.07321 8.76492 5.13898 8.62605C5.16091 8.58331 5.17735 8.54058 5.19928 8.49785C5.26505 8.35898 5.43498 8.30022 5.57749 8.36432C5.72001 8.42842 5.7803 8.594 5.71452 8.73287C5.69808 8.77026 5.67615 8.81299 5.65971 8.85038C5.61038 8.95187 5.51171 9.01596 5.40209 9.01596L5.39661 9.01062ZM18.7491 9.09608C18.6395 9.09608 18.5354 9.03199 18.4915 8.9305C18.4751 8.89311 18.4586 8.85038 18.4367 8.81299C18.3709 8.67412 18.4367 8.51388 18.5792 8.44978C18.7217 8.38568 18.8916 8.44978 18.9519 8.58866C18.9739 8.63139 18.9903 8.67412 19.0122 8.71685C19.0725 8.85572 19.0067 9.02131 18.8642 9.08006C18.8259 9.09608 18.793 9.10143 18.7546 9.10143L18.7491 9.09608ZM4.93069 10.4207C4.93069 10.4207 4.89232 10.4207 4.8704 10.4154C4.71692 10.3833 4.61826 10.2391 4.65115 10.0896C4.66211 10.0415 4.67307 9.99877 4.68403 9.9507C4.71692 9.80114 4.8704 9.71034 5.02388 9.74239C5.17735 9.77443 5.27054 9.92399 5.23765 10.0736C5.22669 10.1163 5.21572 10.159 5.21024 10.2017C5.18284 10.3299 5.06225 10.4207 4.93618 10.4207H4.93069ZM19.1931 10.5115C19.0616 10.5115 18.941 10.4207 18.9136 10.2872C18.9026 10.2445 18.8971 10.2017 18.8862 10.159C18.8533 10.0095 18.9519 9.86524 19.1054 9.83319C19.2589 9.80114 19.4069 9.89728 19.4398 10.0415C19.4507 10.0896 19.4617 10.1323 19.4672 10.1804C19.4946 10.3299 19.3959 10.4742 19.2424 10.5062C19.226 10.5062 19.2041 10.5062 19.1876 10.5062L19.1931 10.5115ZM4.77722 11.8949C4.62374 11.8949 4.49219 11.7721 4.49219 11.6172V11.6065C4.49219 11.5584 4.49219 11.5211 4.49219 11.4783C4.49219 11.3288 4.61826 11.2059 4.77722 11.2059C4.93069 11.2059 5.05676 11.3341 5.05676 11.4837C5.05676 11.5211 5.05676 11.5584 5.05676 11.6012V11.6172C5.05676 11.7668 4.93069 11.8949 4.77174 11.8949H4.77722ZM19.3301 12.0125C19.1767 12.0125 19.0506 11.8843 19.0506 11.7347C19.0506 11.692 19.0506 11.6492 19.0506 11.6065V11.5798C19.0506 11.4303 19.1767 11.3021 19.3301 11.3021C19.4836 11.3021 19.6097 11.4249 19.6152 11.5745V11.6065C19.6152 11.6546 19.6152 11.7027 19.6152 11.7454C19.6152 11.8949 19.4836 12.0178 19.3301 12.0178V12.0125ZM4.93618 13.3692C4.80462 13.3692 4.68952 13.2784 4.66211 13.1502C4.65115 13.1021 4.64018 13.0594 4.6347 13.0113C4.6073 12.8617 4.70596 12.7175 4.85944 12.6908C5.01291 12.6641 5.16091 12.7602 5.18832 12.9098C5.19928 12.9525 5.20476 12.9953 5.21572 13.038C5.24861 13.1876 5.14995 13.3318 4.99647 13.3638C4.97454 13.3638 4.9581 13.3692 4.93618 13.3692ZM19.1438 13.4867C19.1438 13.4867 19.0999 13.4867 19.078 13.4813C18.9245 13.4493 18.8313 13.2997 18.8642 13.1502C18.8752 13.1074 18.8862 13.0647 18.8916 13.022C18.9245 12.8724 19.0725 12.7763 19.226 12.8083C19.3795 12.8404 19.4781 12.9846 19.4453 13.1341C19.4343 13.1822 19.4233 13.2249 19.4124 13.273C19.3795 13.4012 19.2644 13.4867 19.1383 13.4867H19.1438ZM6.16947 16.0559C6.08177 16.0559 5.99407 16.0185 5.93926 15.9437C5.91185 15.9063 5.88445 15.8689 5.85704 15.8315C5.76934 15.7087 5.79674 15.5377 5.9283 15.4469C6.05437 15.3615 6.22977 15.3882 6.32295 15.5164C6.35036 15.5538 6.37228 15.5858 6.39969 15.6232C6.49287 15.7461 6.46547 15.917 6.3394 16.0078C6.29006 16.0452 6.22977 16.0612 6.17496 16.0612L6.16947 16.0559ZM17.8611 16.1573C17.8009 16.1573 17.7406 16.1413 17.6912 16.1039C17.5652 16.0131 17.5432 15.8369 17.6364 15.7194C17.6638 15.6873 17.6912 15.6499 17.7186 15.6125C17.8118 15.4897 17.9872 15.463 18.1133 15.5538C18.2394 15.6446 18.2668 15.8155 18.1736 15.9383C18.1462 15.9757 18.1188 16.0131 18.0859 16.0505C18.0311 16.12 17.9434 16.1573 17.8611 16.1573ZM7.189 17.1562C7.12323 17.1562 7.05197 17.1348 7.00264 17.0867C6.96975 17.0547 6.93138 17.0226 6.89849 16.9906C6.78338 16.8891 6.7779 16.7128 6.88205 16.6007C6.98619 16.4885 7.16708 16.4832 7.28218 16.5846C7.31507 16.6167 7.34796 16.6434 7.38085 16.6701C7.49596 16.7716 7.50692 16.9479 7.40277 17.06C7.34796 17.1188 7.27122 17.1508 7.19448 17.1508L7.189 17.1562ZM16.8197 17.2363C16.743 17.2363 16.6607 17.2042 16.6059 17.1401C16.5018 17.028 16.5182 16.8517 16.6333 16.7502C16.6662 16.7235 16.6991 16.6915 16.732 16.6648C16.8471 16.5633 17.028 16.574 17.1321 16.6861C17.2363 16.7983 17.2253 16.9746 17.1102 17.0761C17.0773 17.1081 17.039 17.1401 17.0006 17.1669C16.9458 17.2096 16.88 17.2363 16.8142 17.2363H16.8197ZM8.4223 18.0268C8.37297 18.0268 8.32364 18.0161 8.27979 17.9894C8.23594 17.9681 8.19757 17.9414 8.15372 17.92C8.02216 17.8399 7.97831 17.6743 8.05505 17.5408C8.13727 17.4126 8.30719 17.3698 8.44423 17.4446C8.4826 17.466 8.52096 17.4873 8.55933 17.5087C8.69637 17.5835 8.74022 17.7544 8.66348 17.8826C8.60867 17.9734 8.51548 18.0215 8.41682 18.0215L8.4223 18.0268ZM15.5754 18.0856C15.4768 18.0856 15.3781 18.0322 15.3288 17.9414C15.252 17.8078 15.3014 17.6422 15.4384 17.5675C15.4768 17.5461 15.5151 17.5247 15.5535 17.5034C15.6905 17.4286 15.8605 17.4713 15.9372 17.6048C16.0139 17.7384 15.9701 17.904 15.8331 17.9787C15.7892 18.0001 15.7508 18.0268 15.707 18.0482C15.6631 18.0695 15.6193 18.0802 15.57 18.0802L15.5754 18.0856ZM9.80908 18.6304C9.78167 18.6304 9.74878 18.6304 9.72138 18.6144C9.67753 18.5983 9.62819 18.5877 9.58434 18.5716C9.43635 18.5236 9.35961 18.3633 9.40894 18.2191C9.45827 18.0749 9.62271 18.0001 9.77071 18.0482C9.81456 18.0642 9.85293 18.0749 9.89678 18.0909C10.0448 18.139 10.127 18.2939 10.0777 18.4381C10.0393 18.5556 9.92967 18.6304 9.80908 18.6304ZM14.1722 18.6678C14.0516 18.6678 13.942 18.593 13.9036 18.4701C13.8598 18.3259 13.942 18.171 14.09 18.1283C14.1338 18.1176 14.1722 18.1016 14.2161 18.0909C14.3641 18.0428 14.523 18.123 14.5724 18.2672C14.6217 18.4114 14.5395 18.5663 14.3915 18.6144C14.3476 18.6304 14.2983 18.6411 14.2544 18.6571C14.227 18.6678 14.1996 18.6678 14.1722 18.6678ZM11.3 18.9348C11.3 18.9348 11.2836 18.9348 11.2726 18.9348C11.2233 18.9348 11.1794 18.9242 11.1301 18.9188C10.9766 18.9028 10.867 18.7639 10.8834 18.6144C10.8999 18.4648 11.0424 18.358 11.1959 18.374C11.2397 18.374 11.2836 18.3847 11.3274 18.39C11.4809 18.406 11.596 18.5396 11.5795 18.6891C11.5631 18.8334 11.4425 18.9348 11.3 18.9348ZM12.6813 18.9455C12.5333 18.9455 12.4127 18.8387 12.4017 18.6945C12.3908 18.5449 12.5059 18.4114 12.6594 18.3954C12.7032 18.3954 12.7471 18.39 12.7909 18.3847C12.9444 18.3687 13.0869 18.4808 13.1034 18.6304C13.1198 18.7799 13.0047 18.9188 12.8512 18.9348C12.8019 18.9348 12.758 18.9455 12.7087 18.9455C12.7032 18.9455 12.6923 18.9455 12.6868 18.9455H12.6813Z" fill="#A8A8A8"/>
</g>
<defs>
<clipPath id="clip0_127499_3618">
<rect width="80" height="32" fill="white"/>
</clipPath>
</defs>
</svg>
